<svg xmlns="http://www.w3.org/2000/svg" width="24" height="24" fill="none" stroke-width="1.5" color="#dba895" viewBox="0 0 24 24"><path stroke="#dba895" stroke-linecap="round" stroke-linejoin="round" stroke-width="1.5" d="M17 11.6V15a6 6 0 01-6 6H9a6 6 0 01-6-6v-3.4a.6.6 0 01.6-.6h12.8a.6.6 0 01.6.6zM12 9c0-1 .714-2 2.143-2v0A2.857 2.857 0 0017 4.143V3.5M8 9v-.5a3 3 0 013-3v0a2 2 0 002-2V3"/><path stroke="#dba895" stroke-linecap="round" stroke-linejoin="round" stroke-width="1.5" d="M16 11h2.5a2.5 2.5 0 010 5H17"/></svg>